<svg xmlns="http://www.w3.org/2000/svg" width="518" height="511" viewBox="0 0 518 511" fill="none">
  <path d="
    M 339 420 L 338 421 L 337 421 L 336 421 L 335 422 L 334 422 L 333 423 L 332 423 L 331 424 L 330 424 L 329 424 L 328 425 L 327 425 L 326 426 L 325 426 L 324 426 L 323 427 L 322 427 L 321 427 L 320 428 L 319 428 L 318 428 L 317 429 L 316 429 L 315 430 L 314 430 L 313 430 L 312 430 L 311 431 L 310 431 L 309 431 L 308 431 L 307 432 L 306 432 L 305 432 L 304 432 L 303 433 L 302 433 L 301 433 L 300 433 L 299 434 L 298 434 L 297 434 L 296 434 L 295 434 L 294 435 L 293 435 L 292 435 L 291 435 L 290 435 L 289 435 L 288 435 L 287 435 L 286 436 L 285 436 L 284 436 L 283 436 L 282 436 L 281 436 L 280 436 L 279 436 L 278 437 L 277 437 L 276 437 L 275 437 L 274 437 L 273 437 L 272 437 L 271 437 L 270 437 L 269 437 L 268 437 L 267 437 L 266 437 L 265 438 L 264 438 L 263 438 L 262 438 L 261 438 L 260 438 L 259 438 L 258 438 L 257 438 L 256 438 L 255 438 L 254 438 L 253 438 L 252 438 L 251 438 L 250 438 L 249 438 L 248 438 L 247 438 L 246 438 L 245 438 L 244 438 L 243 438 L 242 438 L 241 438 L 240 438 L 239 438 L 238 438 L 237 438 L 236 438 L 235 438 L 234 438 L 233 438 L 232 438 L 231 438 L 230 438 L 229 438 L 228 438 L 227 438 L 226 438 L 225 438 L 224 438 L 223 438 L 222 438 L 221 438 L 220 438 L 219 438 L 218 438 L 217 438 L 216 438 L 215 438 L 214 438 L 213 438 L 212 438 L 211 438 L 210 438 L 209 438 L 208 438 L 207 438 L 206 438 L 205 438 L 204 438 L 203 438 L 202 438 L 201 438 L 200 438 L 199 438 L 198 438 L 197 438 L 196 438 L 195 438 L 194 438 L 193 438 L 192 438 L 191 438 L 190 438 L 189 438 L 188 438 L 187 438 L 186 438 L 185 438 L 184 438 L 183 438 L 182 438 L 181 438 L 180 438 L 179 438 L 178 438 L 177 438 L 176 438 L 175 438 L 174 438 L 173 438 L 172 438 L 171 438 L 170 438 L 169 438 L 168 438 L 167 438 L 166 438 L 165 438 L 164 438 L 163 438 L 162 438 L 161 438 L 160 438 L 159 438 L 158 438 L 157 438 L 156 438 L 155 438 L 154 438 L 153 438 L 152 438 L 151 438 L 150 438 L 149 438 L 148 438 L 147 438 L 146 438 L 145 438 L 144 438 L 143 438 L 142 438 L 141 438 L 140 438 L 139 438 L 138 438 L 137 438 L 136 438 L 135 438 L 134 438 L 133 438 L 132 438 L 131 438 L 130 438 L 129 438 L 128 438 L 127 438 L 126 438 L 125 438 L 124 438 L 123 438 L 122 438 L 121 438 L 120 438 L 119 438 L 118 438 L 117 438 L 116 438 L 115 438 L 114 438 L 113 438 L 112 438 L 111 438 L 110 438 L 109 438 L 108 438 L 107 439 L 107 440 L 107 441 L 107 442 L 107 443 L 107 444 L 107 445 L 107 446 L 107 447 L 107 448 L 107 449 L 107 450 L 107 451 L 107 452 L 107 453 L 107 454 L 107 455 L 107 456 L 107 457 L 107 458 L 107 459 L 107 460 L 107 461 L 107 462 L 107 463 L 107 464 L 107 465 L 107 466 L 107 467 L 107 468 L 107 469 L 108 469 L 109 469 L 110 469 L 111 469 L 112 469 L 113 469 L 114 469 L 115 469 L 116 469 L 117 469 L 118 469 L 119 469 L 120 469 L 121 469 L 122 469 L 123 469 L 124 469 L 125 469 L 126 469 L 127 469 L 128 469 L 129 469 L 130 469 L 131 469 L 132 469 L 133 469 L 134 469 L 135 469 L 136 469 L 137 469 L 138 469 L 139 469 L 140 469 L 141 469 L 142 469 L 143 469 L 144 469 L 145 469 L 146 469 L 147 469 L 148 469 L 149 469 L 150 469 L 151 469 L 152 469 L 153 469 L 154 469 L 155 469 L 156 469 L 157 469 L 158 469 L 159 469 L 160 469 L 161 469 L 162 469 L 163 469 L 164 469 L 165 469 L 166 469 L 167 469 L 168 469 L 169 469 L 170 469 L 171 469 L 172 469 L 173 469 L 174 469 L 175 469 L 176 469 L 177 469 L 178 469 L 179 469 L 180 469 L 181 469 L 182 469 L 183 469 L 184 469 L 185 469 L 186 469 L 187 469 L 188 469 L 189 469 L 190 469 L 191 469 L 192 469 L 193 469 L 194 469 L 195 469 L 196 469 L 197 469 L 198 469 L 199 469 L 200 469 L 201 469 L 202 469 L 203 469 L 204 469 L 205 469 L 206 469 L 207 469 L 208 469 L 209 469 L 210 469 L 211 469 L 212 469 L 213 469 L 214 469 L 215 469 L 216 469 L 217 469 L 218 469 L 219 469 L 220 469 L 221 469 L 222 469 L 223 469 L 224 469 L 225 469 L 226 469 L 227 469 L 228 469 L 229 469 L 230 469 L 231 469 L 232 469 L 233 469 L 234 469 L 235 469 L 236 469 L 237 469 L 238 469 L 239 469 L 240 469 L 241 469 L 242 469 L 243 469 L 244 469 L 245 469 L 246 469 L 247 469 L 248 469 L 249 469 L 250 469 L 251 469 L 252 469 L 253 469 L 254 469 L 255 469 L 256 469 L 257 469 L 258 469 L 259 469 L 260 469 L 261 469 L 262 469 L 263 469 L 264 469 L 265 469 L 266 469 L 267 469 L 268 469 L 269 469 L 270 469 L 271 468 L 272 468 L 273 468 L 274 468 L 275 468 L 276 468 L 277 468 L 278 468 L 279 468 L 280 468 L 281 468 L 282 468 L 283 467 L 284 467 L 285 467 L 286 467 L 287 467 L 288 467 L 289 467 L 290 466 L 291 466 L 292 466 L 293 466 L 294 466 L 295 466 L 296 466 L 297 465 L 298 465 L 299 465 L 300 465 L 301 465 L 302 464 L 303 464 L 304 464 L 305 464 L 306 464 L 307 463 L 308 463 L 309 463 L 310 463 L 311 462 L 312 462 L 313 462 L 314 462 L 315 461 L 316 461 L 317 461 L 318 461 L 319 460 L 320 460 L 321 460 L 322 460 L 323 459 L 324 459 L 325 459 L 326 458 L 327 458 L 328 458 L 329 457 L 330 457 L 331 457 L 332 456 L 333 456 L 334 456 L 335 455 L 336 455 L 337 454 L 338 454 L 339 454 L 340 453 L 341 453 L 342 453 L 343 452 L 344 452 L 345 451 L 346 451 L 347 450 L 348 450 L 349 449 L 350 449 L 351 449 L 352 448 L 353 448 L 354 447 L 355 447 L 356 446 L 357 446 L 358 445 L 359 445 L 360 444 L 361 444 L 362 443 L 363 442 L 363 441 L 362 440 L 361 439 L 360 438 L 359 437 L 358 436 L 357 435 L 356 434 L 355 434 L 354 433 L 353 432 L 352 431 L 351 430 L 350 429 L 349 428 L 348 427 L 347 426 L 346 425 L 345 424 L 344 423 L 343 422 L 342 421 L 341 420 L 340 420 Z
    M 307 331 L 306 332 L 305 332 L 304 332 L 303 333 L 302 333 L 301 334 L 300 334 L 299 335 L 298 336 L 297 337 L 296 338 L 296 339 L 295 340 L 295 341 L 294 342 L 294 343 L 294 344 L 293 345 L 293 346 L 293 347 L 293 348 L 293 349 L 293 350 L 293 351 L 294 352 L 294 353 L 294 354 L 295 355 L 295 356 L 296 357 L 297 358 L 298 359 L 299 360 L 300 361 L 301 362 L 302 362 L 303 363 L 304 364 L 305 365 L 306 366 L 307 367 L 308 368 L 309 369 L 310 370 L 311 371 L 312 372 L 313 373 L 314 374 L 315 375 L 316 376 L 317 377 L 318 378 L 319 379 L 320 380 L 321 381 L 322 382 L 323 383 L 324 384 L 325 385 L 326 386 L 327 387 L 328 388 L 329 389 L 330 389 L 331 390 L 332 391 L 333 392 L 334 393 L 335 394 L 336 395 L 337 396 L 338 397 L 339 398 L 340 399 L 341 400 L 342 401 L 343 402 L 344 403 L 345 404 L 346 405 L 347 406 L 348 407 L 349 408 L 350 409 L 351 410 L 352 410 L 353 411 L 354 412 L 355 413 L 356 414 L 357 415 L 358 416 L 359 417 L 360 418 L 361 419 L 362 420 L 363 421 L 364 422 L 365 423 L 366 424 L 367 425 L 368 426 L 369 427 L 370 428 L 371 429 L 372 430 L 373 431 L 374 432 L 375 433 L 376 434 L 377 434 L 378 435 L 379 436 L 380 437 L 381 438 L 382 439 L 383 440 L 384 441 L 385 442 L 386 443 L 387 444 L 388 445 L 389 446 L 390 447 L 391 448 L 392 449 L 393 450 L 394 451 L 395 452 L 396 453 L 397 454 L 398 454 L 399 455 L 400 456 L 401 457 L 402 458 L 403 459 L 404 460 L 405 461 L 406 462 L 407 463 L 408 464 L 409 465 L 410 466 L 411 467 L 412 468 L 413 469 L 414 470 L 415 471 L 416 472 L 417 473 L 418 474 L 419 475 L 420 476 L 421 477 L 422 477 L 423 478 L 424 479 L 425 480 L 426 481 L 427 482 L 428 483 L 429 484 L 430 484 L 431 485 L 432 485 L 433 485 L 434 486 L 435 486 L 436 486 L 437 486 L 438 486 L 439 486 L 440 486 L 441 486 L 442 486 L 443 486 L 444 485 L 445 485 L 446 484 L 447 484 L 448 483 L 449 482 L 450 481 L 451 480 L 452 479 L 453 478 L 453 477 L 454 476 L 454 475 L 454 474 L 455 473 L 455 472 L 455 471 L 455 470 L 455 469 L 455 468 L 455 467 L 454 466 L 454 465 L 454 464 L 454 463 L 453 462 L 453 461 L 452 460 L 451 459 L 450 458 L 449 457 L 448 456 L 447 455 L 446 454 L 445 453 L 444 453 L 443 452 L 442 451 L 441 450 L 440 449 L 439 448 L 438 447 L 437 446 L 436 445 L 435 444 L 434 444 L 433 443 L 432 442 L 431 441 L 430 440 L 429 439 L 428 438 L 427 437 L 426 436 L 425 435 L 424 434 L 423 433 L 422 432 L 421 431 L 420 430 L 419 430 L 418 429 L 417 428 L 416 427 L 415 426 L 414 425 L 413 424 L 412 423 L 411 422 L 410 421 L 409 420 L 408 419 L 407 418 L 406 417 L 405 416 L 404 415 L 403 415 L 402 414 L 401 413 L 400 412 L 399 411 L 398 410 L 397 409 L 396 408 L 395 407 L 394 406 L 393 405 L 392 404 L 391 403 L 390 402 L 389 401 L 388 400 L 387 399 L 386 398 L 385 397 L 384 396 L 383 395 L 382 394 L 381 393 L 380 392 L 379 391 L 378 390 L 377 389 L 376 389 L 375 388 L 374 387 L 373 386 L 372 385 L 371 384 L 370 383 L 369 382 L 368 381 L 367 380 L 366 379 L 365 378 L 364 377 L 363 376 L 362 375 L 361 374 L 360 373 L 359 372 L 358 371 L 357 370 L 356 369 L 355 369 L 354 368 L 353 367 L 352 366 L 351 365 L 350 364 L 349 363 L 348 362 L 347 361 L 346 360 L 345 359 L 344 358 L 343 357 L 342 356 L 341 355 L 340 354 L 339 353 L 338 352 L 337 351 L 336 350 L 335 349 L 334 348 L 333 347 L 332 346 L 331 345 L 330 344 L 329 343 L 328 342 L 327 341 L 326 340 L 325 339 L 324 338 L 323 337 L 322 336 L 321 336 L 320 335 L 319 334 L 318 334 L 317 333 L 316 333 L 315 332 L 314 332 L 313 332 L 312 331 L 311 331 L 310 331 L 309 331 L 308 331 Z
    M 435 460 L 436 459 L 437 459 L 438 459 L 439 459 L 440 459 L 441 460 L 442 460 L 443 460 L 444 461 L 445 462 L 446 463 L 447 464 L 447 465 L 448 466 L 448 467 L 448 468 L 449 469 L 449 470 L 448 471 L 448 472 L 448 473 L 447 474 L 447 475 L 446 476 L 445 477 L 444 478 L 443 479 L 442 479 L 441 479 L 440 480 L 439 480 L 438 480 L 437 480 L 436 479 L 435 479 L 434 479 L 433 478 L 432 478 L 431 477 L 430 476 L 430 475 L 429 474 L 429 473 L 428 472 L 428 471 L 428 470 L 428 469 L 428 468 L 428 467 L 429 466 L 429 465 L 430 464 L 431 463 L 432 462 L 433 461 L 434 460 Z
    M 162 24 L 158 25 L 154 25 L 150 26 L 146 27 L 142 28 L 138 29 L 134 30 L 130 31 L 126 32 L 122 34 L 118 35 L 114 37 L 110 39 L 106 41 L 102 43 L 98 45 L 94 48 L 90 51 L 86 53 L 82 57 L 78 60 L 74 63 L 70 67 L 66 71 L 62 75 L 59 79 L 56 83 L 53 87 L 50 91 L 48 95 L 45 99 L 43 103 L 41 107 L 39 111 L 37 115 L 35 119 L 34 123 L 32 127 L 31 131 L 30 135 L 29 139 L 28 143 L 27 147 L 26 151 L 26 155 L 25 159 L 25 163 L 24 167 L 24 171 L 24 175 L 24 179 L 24 183 L 24 187 L 24 191 L 24 195 L 24 199 L 24 203 L 24 207 L 24 211 L 24 215 L 24 219 L 24 223 L 24 227 L 24 231 L 24 235 L 24 239 L 24 243 L 24 247 L 24 251 L 24 255 L 24 259 L 24 263 L 24 267 L 24 271 L 24 275 L 24 279 L 24 283 L 24 287 L 24 291 L 24 295 L 24 299 L 24 303 L 24 307 L 24 311 L 24 315 L 24 319 L 24 323 L 24 327 L 24 331 L 24 335 L 24 339 L 24 343 L 24 347 L 24 351 L 24 355 L 24 359 L 24 363 L 24 367 L 24 371 L 24 375 L 24 379 L 24 383 L 24 387 L 24 391 L 24 395 L 24 399 L 24 403 L 24 407 L 24 411 L 24 415 L 24 419 L 24 423 L 24 427 L 24 431 L 24 435 L 24 439 L 24 443 L 24 447 L 24 451 L 24 455 L 24 459 L 24 463 L 25 467 L 29 466 L 33 466 L 37 466 L 41 466 L 45 466 L 49 466 L 53 466 L 55 464 L 55 460 L 55 456 L 55 452 L 55 448 L 55 444 L 55 440 L 55 436 L 55 432 L 55 428 L 55 424 L 55 420 L 55 416 L 55 412 L 55 408 L 55 404 L 55 400 L 55 396 L 55 392 L 55 388 L 55 384 L 55 380 L 55 376 L 55 372 L 55 368 L 55 364 L 55 360 L 55 356 L 55 352 L 55 348 L 55 344 L 55 340 L 55 336 L 55 332 L 55 328 L 55 324 L 55 320 L 55 316 L 55 312 L 55 308 L 55 304 L 55 300 L 55 296 L 55 292 L 55 288 L 55 284 L 55 280 L 55 276 L 55 272 L 55 268 L 55 264 L 55 260 L 55 256 L 59 255 L 63 255 L 67 255 L 71 255 L 75 255 L 79 255 L 83 255 L 87 255 L 91 255 L 95 255 L 99 255 L 103 255 L 107 255 L 111 255 L 115 255 L 119 253 L 120 249 L 120 245 L 120 241 L 121 237 L 121 233 L 121 229 L 121 225 L 121 221 L 122 217 L 123 213 L 124 209 L 125 205 L 128 201 L 131 197 L 135 193 L 139 190 L 143 188 L 147 186 L 151 184 L 155 183 L 159 182 L 163 181 L 167 180 L 171 180 L 175 180 L 179 180 L 183 181 L 187 182 L 191 183 L 195 184 L 199 186 L 203 188 L 207 191 L 211 194 L 215 198 L 218 202 L 221 206 L 224 210 L 226 214 L 227 218 L 229 222 L 229 226 L 230 230 L 230 234 L 230 238 L 230 242 L 230 246 L 230 250 L 230 254 L 230 258 L 230 262 L 230 266 L 230 270 L 230 274 L 230 278 L 230 282 L 230 286 L 230 290 L 232 292 L 236 292 L 240 292 L 244 292 L 248 292 L 252 292 L 256 292 L 260 292 L 261 289 L 261 285 L 261 281 L 261 277 L 261 273 L 261 269 L 261 265 L 261 261 L 261 257 L 261 253 L 261 249 L 261 245 L 261 241 L 261 237 L 261 233 L 262 229 L 262 225 L 264 221 L 265 217 L 267 213 L 269 209 L 271 205 L 274 201 L 278 197 L 282 194 L 286 191 L 290 188 L 294 186 L 298 184 L 302 183 L 306 182 L 310 181 L 314 180 L 318 180 L 322 180 L 326 181 L 330 181 L 334 182 L 338 183 L 342 185 L 346 186 L 350 189 L 354 191 L 358 194 L 361 198 L 365 202 L 367 206 L 369 210 L 370 214 L 371 218 L 372 222 L 372 226 L 373 230 L 373 234 L 373 238 L 373 242 L 373 246 L 373 250 L 373 254 L 373 258 L 373 262 L 373 266 L 373 270 L 373 274 L 373 278 L 373 282 L 373 286 L 373 290 L 373 294 L 374 298 L 378 298 L 382 298 L 386 298 L 390 298 L 394 298 L 398 298 L 402 298 L 404 295 L 404 291 L 404 287 L 404 283 L 404 279 L 404 275 L 404 271 L 404 267 L 404 263 L 404 259 L 404 255 L 404 251 L 404 247 L 404 243 L 404 239 L 404 235 L 404 231 L 404 227 L 403 223 L 403 219 L 402 215 L 401 211 L 400 207 L 399 203 L 397 199 L 396 195 L 393 191 L 391 187 L 388 183 L 385 179 L 382 175 L 378 172 L 374 168 L 370 165 L 366 163 L 362 160 L 358 158 L 354 157 L 350 155 L 346 154 L 342 153 L 338 152 L 334 151 L 330 150 L 326 150 L 322 150 L 318 150 L 314 150 L 310 150 L 306 151 L 302 151 L 298 152 L 294 153 L 290 155 L 286 156 L 282 158 L 278 160 L 274 162 L 270 165 L 266 168 L 262 171 L 258 174 L 254 178 L 251 182 L 248 186 L 244 186 L 241 182 L 238 178 L 234 174 L 230 171 L 226 167 L 222 165 L 218 162 L 214 160 L 210 158 L 206 156 L 202 155 L 198 153 L 194 152 L 190 151 L 186 151 L 182 150 L 178 150 L 174 150 L 170 150 L 166 150 L 162 150 L 158 151 L 154 151 L 150 152 L 146 153 L 142 155 L 138 156 L 134 158 L 130 160 L 126 162 L 122 165 L 118 168 L 114 171 L 110 175 L 106 179 L 103 183 L 101 187 L 98 191 L 96 195 L 95 199 L 93 203 L 92 207 L 92 211 L 91 215 L 90 219 L 90 223 L 86 224 L 82 224 L 78 224 L 74 224 L 70 224 L 66 224 L 62 224 L 58 224 L 55 222 L 55 218 L 55 214 L 55 210 L 55 206 L 55 202 L 55 198 L 55 194 L 55 190 L 55 186 L 55 182 L 55 178 L 55 174 L 55 170 L 56 166 L 56 162 L 57 158 L 57 154 L 58 150 L 59 146 L 60 142 L 62 138 L 63 134 L 65 130 L 66 126 L 68 122 L 70 118 L 73 114 L 75 110 L 78 106 L 81 102 L 84 98 L 87 94 L 91 90 L 95 86 L 99 83 L 103 80 L 107 77 L 111 74 L 115 71 L 119 69 L 123 67 L 127 66 L 131 64 L 135 62 L 139 61 L 143 60 L 147 59 L 151 58 L 155 57 L 159 57 L 163 56 L 167 56 L 171 56 L 175 56 L 179 56 L 183 56 L 187 56 L 191 56 L 195 56 L 199 56 L 203 56 L 207 56 L 211 56 L 215 56 L 219 56 L 223 56 L 227 56 L 231 56 L 235 56 L 239 56 L 243 56 L 247 56 L 251 56 L 255 56 L 259 56 L 263 56 L 267 56 L 271 56 L 275 56 L 279 56 L 283 56 L 287 56 L 291 56 L 295 56 L 299 56 L 303 56 L 307 56 L 311 56 L 315 56 L 319 56 L 323 56 L 327 56 L 331 56 L 335 57 L 339 57 L 343 58 L 347 59 L 351 60 L 355 61 L 359 62 L 363 63 L 367 65 L 371 66 L 375 68 L 379 70 L 383 72 L 387 74 L 391 77 L 395 80 L 399 82 L 403 86 L 407 89 L 411 93 L 415 97 L 419 101 L 423 105 L 426 109 L 429 113 L 432 117 L 435 121 L 437 125 L 439 129 L 441 133 L 444 137 L 445 141 L 447 145 L 449 149 L 450 153 L 452 157 L 453 161 L 454 165 L 455 169 L 456 173 L 457 177 L 458 181 L 459 185 L 459 189 L 460 193 L 461 197 L 461 201 L 461 205 L 462 209 L 462 213 L 462 217 L 462 221 L 462 225 L 462 229 L 462 233 L 462 237 L 462 241 L 461 245 L 461 249 L 460 253 L 460 257 L 459 261 L 459 265 L 458 269 L 457 273 L 456 277 L 455 281 L 454 285 L 453 289 L 451 293 L 450 297 L 448 301 L 447 305 L 445 309 L 443 313 L 441 317 L 439 321 L 437 325 L 435 329 L 433 333 L 430 337 L 428 341 L 425 345 L 422 349 L 419 353 L 416 357 L 412 361 L 409 365 L 405 369 L 401 373 L 397 377 L 393 381 L 393 384 L 397 388 L 401 391 L 405 395 L 409 399 L 413 403 L 417 401 L 421 398 L 425 394 L 428 390 L 432 386 L 435 382 L 439 378 L 442 374 L 445 370 L 448 366 L 451 362 L 454 358 L 456 354 L 459 350 L 461 346 L 464 342 L 466 338 L 468 334 L 470 330 L 472 326 L 474 322 L 476 318 L 477 314 L 479 310 L 480 306 L 482 302 L 483 298 L 484 294 L 485 290 L 486 286 L 487 282 L 488 278 L 489 274 L 490 270 L 490 266 L 491 262 L 491 258 L 492 254 L 492 250 L 492 246 L 493 242 L 493 238 L 493 234 L 493 230 L 493 226 L 493 222 L 493 218 L 493 214 L 493 210 L 493 206 L 492 202 L 492 198 L 492 194 L 491 190 L 491 186 L 490 182 L 489 178 L 489 174 L 488 170 L 487 166 L 486 162 L 485 158 L 484 154 L 483 150 L 481 146 L 480 142 L 478 138 L 477 134 L 475 130 L 473 126 L 471 122 L 469 118 L 467 114 L 464 110 L 462 106 L 459 102 L 457 98 L 454 94 L 451 90 L 447 86 L 444 82 L 440 78 L 436 74 L 432 70 L 428 66 L 424 63 L 420 60 L 416 57 L 412 54 L 408 51 L 404 49 L 400 46 L 396 44 L 392 42 L 388 40 L 384 38 L 380 37 L 376 35 L 372 34 L 368 32 L 364 31 L 360 30 L 356 29 L 352 28 L 348 27 L 344 27 L 340 26 L 336 25 L 332 25 L 328 25 L 324 24 L 320 24 L 316 24 L 312 24 L 308 24 L 304 24 L 300 24 L 296 24 L 292 24 L 288 24 L 284 24 L 280 24 L 276 24 L 272 24 L 268 24 L 264 24 L 260 24 L 256 24 L 252 24 L 248 24 L 244 24 L 240 24 L 236 24 L 232 24 L 228 24 L 224 24 L 220 24 L 216 24 L 212 24 L 208 24 L 204 24 L 200 24 L 196 24 L 192 24 L 188 24 L 184 24 L 180 24 L 176 24 L 172 24 L 168 24 L 164 24 L 163 24 Z
  " fill="#111111" fill-rule="evenodd"/>
</svg>
